<?xml version="1.0" encoding="UTF-8"?>
<!DOCTYPE svg PUBLIC "-//W3C//DTD SVG 1.1//EN" "http://www.w3.org/Graphics/SVG/1.1/DTD/svg11.dtd">
<!-- Creator: CorelDRAW X6 -->
<svg xmlns="http://www.w3.org/2000/svg" xml:space="preserve" width="41.973mm" height="50.4329mm" version="1.1" style="shape-rendering:geometricPrecision; text-rendering:geometricPrecision; image-rendering:optimizeQuality; fill-rule:evenodd; clip-rule:evenodd"
viewBox="0 0 1957 2352"
 xmlns:xlink="http://www.w3.org/1999/xlink">
 <defs>
  <style type="text/css">
   <![CDATA[
    .str2 {stroke:#FEFEFE;stroke-width:34.9722}
    .str1 {stroke:#FEFEFE;stroke-width:34.9722;stroke-linejoin:round}
    .str0 {stroke:#FEFEFE;stroke-width:69.9444}
    .fil0 {fill:none}
    .fil1 {fill:#FEFEFE}
   ]]>
  </style>
 </defs>
 <g id="Camada_x0020_1">
  <metadata id="CorelCorpID_0Corel-Layer"/>
  <path class="fil0 str0" d="M434 36c69,9 117,76 108,151 -9,75 -72,129 -140,120 -37,-5 -68,-26 -88,-57 -160,-19 -194,167 -131,507l-123 7c-71,-456 10,-666 236,-621 14,-68 74,-115 138,-107z"/>
  <path class="fil1 str1" d="M1223 766c-6,434 -169,650 -466,686l2 207 -139 -1 -139 1 2 -207c-297,-37 -459,-252 -466,-686l218 -12c-5,321 88,449 385,456l1 0c297,-8 390,-136 385,-456l218 12z"/>
  <path class="fil1 str2" d="M1643 713c164,0 297,133 297,298 0,165 -133,298 -297,298 -164,0 -297,-133 -297,-298 0,-165 133,-298 297,-298zm0 133c91,0 165,74 165,165 0,91 -74,165 -165,165 -91,0 -165,-74 -165,-165 0,-91 74,-165 165,-165z"/>
  <path class="fil0 str0" d="M802 36c-69,9 -117,76 -108,151 9,75 72,129 140,120 37,-5 68,-26 88,-57 160,-19 194,167 131,507l123 7c71,-456 -10,-666 -236,-621 -14,-68 -74,-115 -138,-107z"/>
  <path class="fil0 str0" d="M693 1671c1,0 91,617 592,463 194,-60 360,-285 307,-827 57,16 111,10 162,-2 148,1263 -1157,1297 -1218,366l156 0z"/>
 </g>
</svg>
